<mxfile host="app.diagrams.net" modified="2022-01-26T09:23:33.374Z" agent="5.0 (Macintosh; Intel Mac OS X 10_15_7) AppleWebKit/537.36 (KHTML, like Gecko) Chrome/97.0.4692.71 Safari/537.36" etag="u9_ERq8QhmTHthM5T5eG" version="16.2.4" type="github">
  <diagram id="F1Rqp-XpAWJetm0GqfxY" name="Page-1">
    <mxGraphModel dx="1112" dy="402" grid="1" gridSize="10" guides="1" tooltips="1" connect="1" arrows="1" fold="1" page="1" pageScale="1" pageWidth="850" pageHeight="1100" math="0" shadow="0">
      <root>
        <mxCell id="0" />
        <mxCell id="1" parent="0" />
        <mxCell id="93c8elEgpADor7CShbd0-5" style="edgeStyle=orthogonalEdgeStyle;rounded=0;orthogonalLoop=1;jettySize=auto;html=1;entryX=0.244;entryY=0;entryDx=0;entryDy=0;entryPerimeter=0;" edge="1" parent="1" source="93c8elEgpADor7CShbd0-1" target="93c8elEgpADor7CShbd0-4">
          <mxGeometry relative="1" as="geometry" />
        </mxCell>
        <mxCell id="93c8elEgpADor7CShbd0-8" value="Logs" style="edgeLabel;html=1;align=center;verticalAlign=middle;resizable=0;points=[];" vertex="1" connectable="0" parent="93c8elEgpADor7CShbd0-5">
          <mxGeometry x="0.071" y="-2" relative="1" as="geometry">
            <mxPoint as="offset" />
          </mxGeometry>
        </mxCell>
        <mxCell id="93c8elEgpADor7CShbd0-1" value="Azure service" style="verticalLabelPosition=bottom;html=1;verticalAlign=top;align=center;strokeColor=none;fillColor=#00BEF2;shape=mxgraph.azure.cloud_service_package_file;" vertex="1" parent="1">
          <mxGeometry x="80" y="50" width="42.5" height="50" as="geometry" />
        </mxCell>
        <mxCell id="93c8elEgpADor7CShbd0-6" style="edgeStyle=orthogonalEdgeStyle;rounded=0;orthogonalLoop=1;jettySize=auto;html=1;" edge="1" parent="1" source="93c8elEgpADor7CShbd0-2" target="93c8elEgpADor7CShbd0-4">
          <mxGeometry relative="1" as="geometry" />
        </mxCell>
        <mxCell id="93c8elEgpADor7CShbd0-9" value="Logs" style="edgeLabel;html=1;align=center;verticalAlign=middle;resizable=0;points=[];" vertex="1" connectable="0" parent="93c8elEgpADor7CShbd0-6">
          <mxGeometry x="0.4087" y="2" relative="1" as="geometry">
            <mxPoint as="offset" />
          </mxGeometry>
        </mxCell>
        <mxCell id="93c8elEgpADor7CShbd0-2" value="Azure service" style="verticalLabelPosition=bottom;html=1;verticalAlign=top;align=center;strokeColor=none;fillColor=#00BEF2;shape=mxgraph.azure.cloud_service_package_file;" vertex="1" parent="1">
          <mxGeometry x="80" y="130" width="42.5" height="50" as="geometry" />
        </mxCell>
        <mxCell id="93c8elEgpADor7CShbd0-7" style="edgeStyle=orthogonalEdgeStyle;rounded=0;orthogonalLoop=1;jettySize=auto;html=1;entryX=-0.032;entryY=0.89;entryDx=0;entryDy=0;entryPerimeter=0;" edge="1" parent="1" source="93c8elEgpADor7CShbd0-3" target="93c8elEgpADor7CShbd0-4">
          <mxGeometry relative="1" as="geometry" />
        </mxCell>
        <mxCell id="93c8elEgpADor7CShbd0-10" value="Logs" style="edgeLabel;html=1;align=center;verticalAlign=middle;resizable=0;points=[];" vertex="1" connectable="0" parent="93c8elEgpADor7CShbd0-7">
          <mxGeometry x="0.4824" y="4" relative="1" as="geometry">
            <mxPoint as="offset" />
          </mxGeometry>
        </mxCell>
        <mxCell id="93c8elEgpADor7CShbd0-3" value="Azure service" style="verticalLabelPosition=bottom;html=1;verticalAlign=top;align=center;strokeColor=none;fillColor=#00BEF2;shape=mxgraph.azure.cloud_service_package_file;" vertex="1" parent="1">
          <mxGeometry x="80" y="220" width="42.5" height="50" as="geometry" />
        </mxCell>
        <mxCell id="93c8elEgpADor7CShbd0-12" style="edgeStyle=orthogonalEdgeStyle;rounded=0;orthogonalLoop=1;jettySize=auto;html=1;" edge="1" parent="1" source="93c8elEgpADor7CShbd0-4" target="93c8elEgpADor7CShbd0-11">
          <mxGeometry relative="1" as="geometry" />
        </mxCell>
        <mxCell id="93c8elEgpADor7CShbd0-16" value="Logs" style="edgeLabel;html=1;align=center;verticalAlign=middle;resizable=0;points=[];" vertex="1" connectable="0" parent="93c8elEgpADor7CShbd0-12">
          <mxGeometry x="-0.4266" relative="1" as="geometry">
            <mxPoint as="offset" />
          </mxGeometry>
        </mxCell>
        <mxCell id="93c8elEgpADor7CShbd0-4" value="Event hub" style="aspect=fixed;html=1;points=[];align=center;image;fontSize=12;image=img/lib/azure2/analytics/Event_Hub_Clusters.svg;" vertex="1" parent="1">
          <mxGeometry x="280" y="120" width="123.08" height="100" as="geometry" />
        </mxCell>
        <mxCell id="93c8elEgpADor7CShbd0-15" style="edgeStyle=orthogonalEdgeStyle;rounded=0;orthogonalLoop=1;jettySize=auto;html=1;entryX=0;entryY=0.591;entryDx=0;entryDy=0;entryPerimeter=0;" edge="1" parent="1" source="93c8elEgpADor7CShbd0-11" target="93c8elEgpADor7CShbd0-14">
          <mxGeometry relative="1" as="geometry" />
        </mxCell>
        <mxCell id="93c8elEgpADor7CShbd0-17" value="Logs" style="edgeLabel;html=1;align=center;verticalAlign=middle;resizable=0;points=[];" vertex="1" connectable="0" parent="93c8elEgpADor7CShbd0-15">
          <mxGeometry x="0.2" y="4" relative="1" as="geometry">
            <mxPoint as="offset" />
          </mxGeometry>
        </mxCell>
        <mxCell id="93c8elEgpADor7CShbd0-11" value="Function app" style="shape=process;whiteSpace=wrap;html=1;backgroundOutline=1;" vertex="1" parent="1">
          <mxGeometry x="480" y="150" width="120" height="60" as="geometry" />
        </mxCell>
        <mxCell id="93c8elEgpADor7CShbd0-14" value="" style="shape=image;verticalLabelPosition=bottom;labelBackgroundColor=default;verticalAlign=top;aspect=fixed;imageAspect=0;image=data:image/png,iVBORw0KGgoAAAANSUhEUgAAAOEAAADhCAMAAAAJbSJIAAAAolBMVEX3wVwALkL/x10AK0IAKEH7xF3/yF0AI0EAIkEAJUEAIEEAKUEAJkEAIUEAHUAAHEBvZ0s9SkYAGkDyv1yMeU5jYEmgiFGojVHDoFV8bkvktlrsu1sAGEDesVlCSkZdXEkuQ0VVV0jJo1bTqlezlFOXgU95bEuFdU3XrFgoPkS7mlSkilEhOkQAFEA2RUVKUEYPM0OHd00AED8aNkP/0V8ABT+N0ocWAAAONklEQVR4nO1daZuqOBOVQMIq2OC+tK2IW9ui48z//2tvAklYBGz6et8Gn5wP80wrYE5SSZ2qVLidjoCAgICAgICAgICAgICAgICAgICAgICAgICAgICAwA8B4G+34O8CzHpj9MIcIQxsy10twG835C8BouNJkyRJ6e46LzmMaB+6siRriiTp8uj1piPwJrYpSd3bceBgnvbZR7/dpKcCgk9TlyRLCyBE64MhSaY7mL3OdIRg/UFIOb2IFAQjBdNVCN3fbtpzAKYDMgHtN26Y2GTn2GS12+YVPAfs9F28uKiXDBuwWEXTMdy3fTpCtLmo2CLdfs5BQHC8dYnlbr1WT0fkv9l4qNzB9J4GBIFu4dWnO2zvdMQSjXgI47AuNkX8/Tz6vqVCDsJh1yLe/bPcuyP/nYzxvI1CDoLxicwze1I5zyCI56m981o2jHitJB4Cq+xHayVea432CTng7SKJdjp+Z4Jhf0k8h3Fet8VUsWaRmUT73h0Iax65PUKONtfu1Wgu1q0SEXJ20Py4Cszi2OGtZuzAhNyp4Z4DLxvOvUT7HlAs5NywwZ4DS7SbRmwtL9G+eTtzMI0VcmAfOmUSjQNW+QQIAxJX6VYzhRy4ukSCfVSu+cBfVU404G1joTdu3jDC8ZckyZdKv42FqKu4y6oxxtMxsoSva+MowgCrL6tqhcE2SIIJSTEqc20kJWdKSq95DBdfsiTZpRqaNDxaR4hEk0ZVpgrBh9xAhh24vuCF1JzvCldCtA9JFOEs9ySiwhKtyl+it0YyZPkKrKHvBogtIMSfo/3ZfiDRmsowEjQkosiHvDhSVIkTUOJIkWU2yiVacxkyUSo7qQGCaBwlSOdb/hmVPqW5tiYzxHxGsYZmugZHinPCOZtVoxlG571wOjaaYRwckgG6HLFN4j8M/kf2sjhLbG8LpmPDGUYaOh6gPYoiRcUomnEsjNTvJVrjGUZTD/s+WSMeEE/KEhHDUwF5idZ8htHySfQL1gDmW0kukQCPNrnqq58dxTYwJAMUJUslc10lX1DnDfeCss3SaQdDImPenEjIlSptCAKF9IIyaSdDIkVvVMgVDSOerdHWhdxehkkytEhp0+0nZ3mWW8yQC7m7XW3o7YiIxevov+/tZhi7dpJdTCtt7AuJ8rFU7AtB6xky157a1UbrKLyIleoLMIxMMtJut0i7EcPFIaL97kckWsNwVpkeYzs14QLBgJTUqNKGKtW2MITHS2WSDbuGU1SPsSV1UYrW5x3SGoZjt1R/0ivg0MASTSE7oukr28PQkJR5dbKb5DKwgtHOGaXaJoaPNyzQWpGsazZULGRoNpTh400nz5S0TbYPWjWGcUK0auNwpkjaqL0MjSmN2ss3f9vOcAG8iRFv4JdsX7SeIcSuPaqTdUqKMF6AYeTao4K1wkKaV2AY7TEZcTHUved4DYZRjsahBW05jq/CkOz1RkWJd5tt9wyjrbQWMiTbLzh+kEw3Ox3zDEkqx2xHri3PMMrR2HebbTmGeOWNahPbkC+9Z0i2X1ZxjiZR2hmGtEroviyhNQy550h2Q1MMIfwkpSWW0pJ9i0KG8UknJZWj4QzZsYt5a/aeShjGFSYm319jDMF06ZbX6reLISl1PtssRxMzhDBKFCe5mvwdLWPI9oXNr4kXxYdoY+rZXE0OrWNI0okTYqq6PMTMrqGNg+Wq0qgWMmT7wmQoJSUuf2tbPQ1hqI0rWk0OyZDzlQS6WXFCAS9DnUMjGWLTc4qW/uQSHHMoUmlgxS8DI7mJdW3Qt63isoMUwGxgm3Z1EXBcoyHPG1ibGB/x6VYXaqN1WJbgiBDX2ZC4q3EEO/yIj1M5Ro9qhJt9ugSCOGKqrh8tv53WZ86rDxL9LrBYic5qKz8YBFSdw2oMYsEpGecqf1d0X5yHNE7jhhpoCiguWJtX70RlAUEUSelmUydgFmxXWy3VnfkbaKc8OMnXJABv58QR0/fOri3Z/vDfb9rTABarKNf2vn80KrBzNeKyk1YYaAK6qy0/OKtNU3KW0cxTMtWAcKiU1I9yxMExe9lC+wBm26+qs9pxgqP+Sb4mgR7xKXzpDuwEPz7J1yDgqJCcM7k/CETrFn96kq9JwGpate7UNH0dTy1Z0Fzg6Ua8Y6o8kR2hqUxltArx6zHMOX0/Dfy09CbHSD8Be3VCNyBnYaNkt1F8Aqy9SA4CLb/5soX2gR4E0kiqo61vM3kEshkjkzfSvMwLou5A0vua3XuxCZgF8K7+K/MjeFkDFRAQEBAQ+JuA8MVdKNiPPjfPzwTANJ798FrwVo6mdp3tk1sB9+M1x3jx3IfXa8lZj2objOVzRxFsvwyOr93vSWU4NGj5hjt+6iiCiSVx6P3fY4g+ZNqKfJHtH6IxDKHCWmGuXpMhuvAxfO5EbAxDMNFpK4zPJ89DtRkMO1MjHkTz8tznwuAg6Y1gCNd6VzEV+1RRFPizB0P4qTeBYQfOPger7eYv6A44UhvBkOTLwV/J/lcyJD9KfvdXBR22M9KEH7ehnCFEi9FuFYZhb+jDgo1PABCYTQvg4W+9MhQ2AqAUQPZXoD8Kdrtg5FdWyv2AIZ6gJ1uzTAxFt5VtTvWDzrq/vGhd4x7/HCFepOea1tW0+D/J/9hvRTMB7A4fHIdUwSkE46Vqa7pl6ZqtLiurHesyRMebwZwwgWXsUnYCZzvJ1s30BQkMwnCnF35nhoUMt7rMoQ/4Jch/c5XUzc6PCgGKGcLePN989cYXcrAxiglE6EYMrcLvyhimeCicIbiS+ofM7V+T+qNYyBCtugWt0ylFsJmX83seQ7A07h9g1JetRQzBtoCgJMnyLPp6WvDL6UY8hyHaFv6MNqhLsYAh3LjFbVdWZBqAfmKiStewbTv5W7XteKXZGWaCnzAEo5JG2MOaFIvGMLWEyIqSaqBzJEeZDvzr7va4XuwXQ/6IzQJjRiLa1ZKjd+AP0L/NcJaa6bKZXtSM6Z8yhEON/5px2O5Ck/8tf5BL+Cy0rijO8LBHyGfmmqlWIPh3zNuvfMyK2oBnRUIhZpgyFNO+hOHF4A/Ra+Yi7hkCHm8bywXCfr0z7LJPXB92ptx8bB/m7pjv79Y6lJibfi6uGoLBahnyADFiCDljY7WGCMH90uZ9UIvgPUO4YGOkThB7cSdbN6wrSDF0qL2AkFkyWWVyBAM+5HpYelwKoDVbVyKG0bmVCN1+3AiIeCrn/kdqMhxRozQT/QFG9OnmO+p4vMlsDNGNj3o+j4SuvOu1VdX5hHGGIbhSIzVX3MejHjVUq56Z3jHkC326tZBxwAEq4Aak96OfB3s+qm7OSsHW4dZWefwnz3BFrcJO4kU4pZ1VvCDXYDigXWWkW8r6T50lF+C/Pj28lKyTxVXOPhz1uE+zq3NoOYboFD9SPqR6DJzph7da2u2e4ZJNqvRx+oBaDZ56cJ14KtWVLkYiYPXsGwXgkisHZ1fdqjxDajNmmLotaVkdghVjqKe7r09N154SE0qr0pSnkvW0M4CdkGeB3OBBt5eMofme6rKnMZxQhk5qTiG2WsYc3gsFlan66WH3zly5ucOH/85OjiHzP2mzZ1JDvv3ZPOQGaSWGBRfU3ORbvHQHKRHCWma/TdMEZwd+jbvBT6L+P3VFOm7PrzR8MUg8A/TpqmW+1ZyH/MAnZbjmroifMEBsaTPjfC2iDBVLwYIKh8iarQ8ypwzg9MbVnnvEN3nLAcGSX4D8z+CTx9U5hryb8VKTvNHOZF1fcwwZQ2VCu4bNLFlZR6oMzPjEo28ROFKXuJv0lm/hstff5HIMcCExgrIRHTH0/lEI/vHYBW+upmsui/fyDH22mimhR54MgccbYdfbvEkYStIMkWwX2Fq8ceFo7R93ZmJvUQOphjEH/xJRV5Crgnsr0Zl+1E1e3OQ5ZTiV4mcyJ5Jj2AEnruKkqz+d+oHEGiFLtQimGcrOqtfbQLhIvIGpGnY3CfWYN6C9qez8GSjIg0HfTgj2jwTjYzfNEAzYQ6lGyDOEo2QxswzXtXX+RC2oqbw3qWjXVLr4+Sid68/Aot6AdYFlW6dwNxwvYGYY4Sa11lrdLslX0V9hY8i7VQ0KGXbgqTgLhIewFj9iUHbm/hOZjCez8OFz+hY9ruHIDbKlGo57WgY+n4mZXss9Ima44F1gxWZ6z3BdEgHPa2+hAjnTWZZHFkKliKLDQmRw1fLfyaZuHzY8SfCIoce7la3geYYdMCyk6Na0UfLsYWYQbTIv4OJy5/DkeT9xQ7eiNIzs0ujhMUOuICR3XWylUdx1Z6iZRnwbIEyPSDeyROiRN1SnoUqpFwTB2cpRCuYJTRM9Zsi9AUtrFDDsgLGcS1rqyvFHeytwMGfNlRX26ntwPLss5ysrhpr7Vw/AuneZ2109x3MejQjcfKkl+I+uNODoqoqpz0PmH8dzJUY32QSG3s5R+XyRVefH/zwk8rcnw7Ed2zz0NmxnAYuO6/tFxR9bJ/xpvu/w6tnxN8HgQ067k7jOAO6HZQiS1gfL5ZW/bwD6gx5FkFb8s2EoOwZejR0pHP7B0T4sSGYLfzGdZfa3IECd2WKf+zR9G9Y7yJsed3yxkg+IflGGTB+lnpukrvInw7zFeHMcL7w/P9dQsn/1+LkQdC7clP7CHuT/v2DLm6ZyhXG3c4bmKxTfwf1/c+V0Xg16k36MHg+D5csrnAGCC/JyJBwzKZYeI/GdSu1dhSYiYlgCt14qs6GoYGi9v8IQVjBUD4XbEq0D3H8VBTayakxaf5iZYjr4cFzbUPESE8HS1a49PwcvcZg5BkBo6o8/g/62NxgMertguPGfIDkahihFxRz+bxeJCwgICAgICAgICAgICAgICAgICAgICAgICAgICAi8GP4Hrp8V/QcZIvsAAAAASUVORK5CYII=;" vertex="1" parent="1">
          <mxGeometry x="720" y="115" width="110" height="110" as="geometry" />
        </mxCell>
      </root>
    </mxGraphModel>
  </diagram>
</mxfile>
